<svg width="147" height="34" viewBox="0 0 147 34" fill="none" xmlns="http://www.w3.org/2000/svg">
<path d="M19.2667 0L38.5335 33.0942H0L19.2667 0ZM83.1073 17.5813C83.1073 12.2552 79.1498 8.53211 73.474 8.53211C67.7981 8.53211 63.8406 12.2552 63.8406 17.5813C63.8406 22.804 68.1105 26.6305 73.9947 26.6305C77.2232 26.6305 80.1392 25.4412 82.0138 23.2694L78.4729 21.2527C77.3794 22.3386 75.7652 23.0108 73.9947 23.0108C71.3911 23.0108 69.152 21.6147 68.3709 19.4946L68.2147 19.1326H82.9511C83.0553 18.6155 83.1073 18.0984 83.1073 17.5813ZM68.1626 16.03L68.2667 15.7198C68.9437 13.4962 70.9224 12.1518 73.4219 12.1518C75.9734 12.1518 77.9001 13.4962 78.577 15.7198L78.6812 16.03H68.1626ZM139.189 17.5813C139.189 12.2552 135.232 8.53211 129.556 8.53211C123.88 8.53211 119.922 12.2552 119.922 17.5813C119.922 22.804 124.192 26.6305 130.077 26.6305C133.305 26.6305 136.221 25.4412 138.096 23.2694L134.555 21.2527C133.461 22.3386 131.847 23.0108 130.077 23.0108C127.473 23.0108 125.234 21.6147 124.453 19.4946L124.297 19.1326H139.033C139.137 18.6155 139.189 18.0984 139.189 17.5813ZM124.244 16.03L124.349 15.7198C125.026 13.4962 127.004 12.1518 129.504 12.1518C132.055 12.1518 133.982 13.4962 134.659 15.7198L134.763 16.03H124.244ZM114.194 14.6339L117.735 12.6172C116.069 10.0317 113.101 8.58382 109.508 8.58382C103.832 8.58382 99.8746 12.3069 99.8746 17.633C99.8746 22.9591 103.832 26.6822 109.508 26.6822C113.101 26.6822 116.069 25.2344 117.735 22.6489L114.194 20.6322C113.257 22.1835 111.591 23.0625 109.508 23.0625C106.227 23.0625 104.04 20.8907 104.04 17.633C104.04 14.3753 106.227 12.2035 109.508 12.2035C111.539 12.2035 113.257 13.0826 114.194 14.6339ZM147 2.89575H142.834V26.1651H147V2.89575ZM66.9129 2.89575H62.1222L52.9575 18.6155L43.7928 2.89575H38.9501L52.9575 26.8891L66.9129 2.89575ZM96.3858 13.3411C96.8544 13.3411 97.3231 13.3928 97.7917 13.4962V9.10092C94.2508 9.20434 90.9182 11.1693 90.9182 13.5997V9.10092H86.7524V26.1651H90.9182V18.7706C90.9182 15.5646 93.1573 13.3411 96.3858 13.3411Z" fill="white"/>
</svg>
