<svg width="146" height="46" viewBox="0 0 146 46" fill="none" xmlns="http://www.w3.org/2000/svg">
<path d="M10.2674 38.9275V32.0105H6.75487V39.0896C6.75487 39.9002 6.43064 40.5487 5.51198 40.5487C4.59331 40.5487 4.26908 39.9002 4.26908 39.0896V14.2317C4.26908 13.4211 4.59331 12.7726 5.51198 12.7726C6.43064 12.7726 6.75487 13.4211 6.75487 14.2317V21.2567H10.2674V14.3938C10.2674 10.7732 8.5922 8.23335 5.45794 8.23335C2.53983 8.23335 0 10.7732 0 14.3938V38.9275C0 42.6021 2.53983 45.0879 5.45794 45.0879C8.5922 45.0879 10.2674 42.6021 10.2674 38.9275Z" fill="#F3D7D3"/>
<path d="M22.5233 38.9275V14.3938C22.5233 10.7732 20.1456 8.23335 17.1734 8.23335C14.2553 8.23335 11.8236 10.7732 11.8236 14.3938V38.9275C11.8236 42.6021 14.2553 45.0879 17.1734 45.0879C20.1456 45.0879 22.5233 42.6021 22.5233 38.9275ZM18.2542 39.2517C18.2542 40.0623 17.8759 40.5487 17.1734 40.5487C16.4709 40.5487 16.0926 40.0623 16.0926 39.2517V14.0696C16.0926 13.259 16.4709 12.7726 17.1734 12.7726C17.8759 12.7726 18.2542 13.259 18.2542 14.0696V39.2517Z" fill="#F3D7D3"/>
<path d="M40.0509 44.6556V8.66567H34.701L33.242 22.8239L32.5935 31.9565L31.891 22.8239L30.3239 8.66567H24.8119V44.6556H28.3785V15.6367L28.7568 23.5264L30.5941 44.6556H33.5122L35.6197 23.5264L36.052 15.6367V44.6556H40.0509Z" fill="#F3D7D3"/>
<path d="M52.7568 24.4991V14.3398C52.7568 9.74644 50.1089 8.66567 48.0014 8.66567H42.5434V44.6556H46.7585V30.1732H48.0014C50.1089 30.1732 52.7568 29.0924 52.7568 24.4991ZM48.6498 24.7693C48.6498 25.796 48.3797 26.1743 47.8933 26.1743H46.7585V12.9888H47.8933C48.3797 12.9888 48.6498 13.4211 48.6498 14.4478V24.7693Z" fill="#F3D7D3"/>
<path d="M65.5429 44.6556V44.4935C65.2728 42.7643 65.0026 40.9269 65.0026 38.6573V30.9838C65.0026 29.2545 64.0839 28.1737 62.9491 27.2551C64.0839 26.2824 64.8945 25.2016 64.8945 23.5264V14.3398C64.8945 9.74644 62.2466 8.66567 60.139 8.66567H54.6811V44.6556H58.8962V29.2005H59.9229C60.5173 29.2005 60.8416 29.7949 60.8416 30.6055V39.0896C60.8416 40.981 61.2198 44.6556 61.8683 44.6556H65.5429ZM60.7335 23.6345C60.7335 24.7152 60.4633 25.0935 59.9769 25.0935H58.8962V12.9888H59.9769C60.4633 12.9888 60.7335 13.4211 60.7335 14.4478V23.6345Z" fill="#F3D7D3"/>
<path d="M75.8885 44.6556V40.3325H71.3492V28.2818H74.4294V23.9587H71.3492V12.9888H75.8885V8.66567H67.1882V44.6556H75.8885Z" fill="#F3D7D3"/>
<path d="M87.6343 38.1709C87.6343 34.3882 85.9591 29.7409 84.0137 25.1475C82.0143 20.3921 81.2037 18.9331 81.2037 14.1776C81.2037 13.0969 81.7981 12.5565 82.6087 12.5565C83.3652 12.5565 83.8516 13.0969 83.8516 14.1776V19.6356H87.4722V14.8261C87.4722 10.3409 85.5268 8.23335 82.6087 8.23335C78.7179 8.23335 76.9887 11.2055 76.9887 15.3665C76.9887 19.0952 79.3123 24.7693 80.8795 28.4439C82.7168 32.659 83.5274 35.523 83.5274 39.1436C83.5274 40.2785 83.041 41.035 82.0683 41.035C80.9875 41.035 80.5552 40.2785 80.5552 39.1436V34.118H76.9346V38.4952C76.9346 42.7643 78.9341 45.0879 82.2845 45.0879C84.446 45.0879 87.6343 43.791 87.6343 38.1709Z" fill="#F3D7D3"/>
<path d="M99.5081 38.1709C99.5081 34.3882 97.8329 29.7409 95.8875 25.1475C93.8881 20.3921 93.0775 18.9331 93.0775 14.1776C93.0775 13.0969 93.6719 12.5565 94.4825 12.5565C95.239 12.5565 95.7254 13.0969 95.7254 14.1776V19.6356H99.346V14.8261C99.346 10.3409 97.4006 8.23335 94.4825 8.23335C90.5917 8.23335 88.8624 11.2055 88.8624 15.3665C88.8624 19.0952 91.1861 24.7693 92.7533 28.4439C94.5906 32.659 95.4012 35.523 95.4012 39.1436C95.4012 40.2785 94.9148 41.035 93.9421 41.035C92.8613 41.035 92.429 40.2785 92.429 39.1436V34.118H88.8084V38.4952C88.8084 42.7643 90.8078 45.0879 94.1583 45.0879C96.3198 45.0879 99.5081 43.791 99.5081 38.1709Z" fill="#F3D7D3"/>
<path d="M110.085 44.6556V40.3325H105.546V28.2818H108.626V23.9587H105.546V12.9888H110.085V8.66567H101.385V44.6556H110.085Z" fill="#F3D7D3"/>
<path d="M122.371 38.9815V14.3398C122.371 9.74644 119.723 8.66567 117.562 8.66567H111.834V44.6556H117.562C119.723 44.6556 122.371 43.5748 122.371 38.9815ZM118.156 38.9275C118.156 39.9542 117.832 40.3865 117.129 40.3865H116.049V12.9888H117.129C117.832 12.9888 118.156 13.4211 118.156 14.4478V38.9275Z" fill="#F3D7D3"/>
<path d="M126.632 9.19783C126.152 11.3819 125.886 13.3706 125.886 14.3117C125.886 16.2471 126.401 17.934 128.159 17.934C130.396 17.934 131.639 15.1995 131.639 12.8556C131.639 11.2931 131.088 10.0501 130.378 9.19783H133.113L133.184 8.00816H128.407C129.242 4.66996 130.467 1.49157 131.639 1.49157C132.136 1.49157 132.74 2.1308 132.74 2.92983C132.74 3.21394 132.669 3.51579 132.509 3.81765L133.024 4.11951C133.592 3.51579 133.841 2.84105 133.841 2.20182C133.841 0.923362 132.864 3.05176e-05 131.816 3.05176e-05C129.597 3.05176e-05 127.91 4.10175 126.916 8.00816H125.104V9.19783H126.632ZM128.283 9.19783C129.455 9.99687 130.236 11.4174 130.236 12.8734C130.236 14.5603 129.188 16.4247 128.318 16.4247C127.519 16.4247 127.466 14.7911 127.466 14.2584C127.466 13.0332 127.715 11.151 128.141 9.19783H128.283Z" fill="#F3D7D3"/>
<path d="M135.275 14.1341H136.891C136.855 13.779 136.926 13.3528 136.997 12.9622L138.151 6.35681C138.666 5.61105 139.039 5.23816 139.59 5.23816C140.318 5.23816 140.602 5.89515 140.477 6.67643L139.163 14.1341H140.602L141.845 7.04931C141.88 6.87175 141.898 6.69419 141.916 6.53438C142.217 5.96617 142.91 5.25592 143.567 5.25592C144.171 5.25592 144.437 5.89515 144.295 6.67643L143.496 10.6716C143.336 11.5239 143.176 12.4295 143.176 13.0332C143.176 14.0631 143.656 14.4005 144.135 14.4005C144.721 14.4005 145.556 13.921 146 13.5659L145.733 12.9089C145.609 12.9799 145.307 13.1042 145.076 13.1042C144.881 13.1042 144.703 13.0155 144.703 12.7491C144.792 11.4707 145.059 10.1744 145.325 8.82495C145.431 8.29226 145.556 7.67079 145.662 7.04931C145.982 5.25592 145.36 3.72887 143.745 3.72887C143.034 3.72887 142.306 4.03073 141.738 4.82977C141.489 4.15502 140.957 3.72887 140.104 3.72887C139.43 3.72887 138.95 3.99522 138.435 4.74098L138.56 4.01297H137.05L135.275 14.1341Z" fill="#F3D7D3"/>
</svg>
