<svg width="30" height="39" viewBox="0 0 30 39" fill="none" xmlns="http://www.w3.org/2000/svg">
<g clip-path="url(#clip0_707_14412)">
<path d="M14.5992 29.6629C14.3774 29.5679 14.1557 29.4412 13.926 29.3778C13.4112 29.2352 12.944 29.3303 12.5796 29.7421C12.0965 30.2965 11.6372 30.8746 11.1699 31.4449C10.6235 32.1181 10.4967 32.1339 9.90276 31.5557C9.16621 30.8271 8.45343 30.0747 7.70897 29.362C7.09915 28.7838 6.57644 28.7601 5.88742 29.2986C5.15879 29.8768 4.39058 30.4153 3.85995 31.2152C3.57484 31.6429 3.46397 31.6191 3.06006 31.239C2.77494 30.9697 2.50567 30.6766 2.22848 30.3995C2.12552 30.2965 2.01464 30.1935 1.89585 30.1064C1.49986 29.8292 0.826679 29.8609 0.525727 30.1539C0.264374 30.4153 0.216856 31.0014 0.501968 31.3894C0.874199 31.9121 1.30187 32.3873 1.68994 32.8942C2.07801 33.4011 2.08593 33.4644 1.7533 33.9C1.35731 34.3989 0.937552 34.8821 0.533642 35.381C0.383166 35.5711 0.232687 35.7691 0.12181 35.9908C-0.0761849 36.3868 -0.0207416 36.8937 0.201013 37.0996C0.565323 37.4243 1.17514 37.4877 1.57113 37.2026C1.80873 37.0283 2.00673 36.8066 2.1968 36.5848C2.52151 36.2126 2.81455 35.8166 3.13926 35.4523C3.41645 35.1355 3.62236 35.1196 3.82828 35.484C4.3193 36.3314 5.14297 36.9412 5.42808 37.947C5.61815 38.6281 6.41013 38.7944 6.99619 38.3351C7.68522 37.7807 8.3188 37.155 8.99198 36.5769C9.42757 36.2047 9.72852 35.6582 10.3463 35.5156C10.6947 35.9275 11.0511 36.3393 11.3996 36.7511C11.5897 36.9729 11.756 37.2342 11.9698 37.4322C12.3183 37.7569 12.8806 37.7965 13.1974 37.5589C13.53 37.3134 13.6805 36.7828 13.4587 36.3631C13.1103 35.7136 12.7143 35.088 12.3104 34.4702C11.8748 33.805 11.8589 33.805 12.3104 33.1872C12.9044 32.4032 13.4983 31.6112 14.1082 30.843C14.219 30.7083 14.4329 30.6608 14.5992 30.5658V29.6788V29.6629ZM4.93704 33.306C4.95288 33.2189 4.94497 33.1555 4.97664 33.1239C5.49935 32.5457 6.00622 31.9597 6.55269 31.4132C6.62397 31.3419 6.95659 31.3973 7.05163 31.5082C7.48721 31.9597 7.86737 32.4744 8.31088 32.9259C9.1979 33.8366 8.93654 33.8446 8.27128 34.5415C8.16832 34.6445 8.06536 34.7553 7.94657 34.8425C7.52682 35.1513 7.22586 35.7928 6.69524 35.6899C6.37053 35.6265 6.14086 35.0642 5.87158 34.7237C5.60231 34.3752 5.33303 34.0267 5.08752 33.6703C5.00832 33.5595 4.97664 33.409 4.93704 33.306V33.306Z" fill="black"/>
<path d="M14.3691 29.6629C14.5909 29.5679 14.8126 29.4412 15.0423 29.3778C15.5571 29.2352 16.0244 29.3303 16.3887 29.7421C16.8718 30.2965 17.3311 30.8746 17.7984 31.4449C18.3449 32.1181 18.4716 32.1339 19.0656 31.5557C19.8021 30.8271 20.5149 30.0747 21.2594 29.362C21.8692 28.7838 22.3919 28.7601 23.0809 29.2986C23.8095 29.8768 24.5777 30.4153 25.1084 31.2152C25.3935 31.6429 25.5044 31.6191 25.9083 31.239C26.1934 30.9697 26.4627 30.6766 26.7399 30.3995C26.8428 30.2965 26.9537 30.1935 27.0725 30.1064C27.4685 29.8292 28.1417 29.8609 28.4426 30.1539C28.704 30.4153 28.7515 31.0014 28.4664 31.3894C28.0941 31.9121 27.6665 32.3873 27.2784 32.8942C26.8903 33.4011 26.8824 33.4644 27.215 33.9C27.611 34.3989 28.0308 34.8821 28.4347 35.381C28.5852 35.5711 28.7356 35.7691 28.8465 35.9908C29.0445 36.3868 28.9891 36.8937 28.7673 37.0996C28.403 37.4243 27.7932 37.4877 27.3972 37.2026C27.1596 37.0283 26.9616 36.8066 26.7715 36.5848C26.4468 36.2126 26.1538 35.8166 25.8291 35.4523C25.5519 35.1355 25.346 35.1196 25.1401 35.484C24.649 36.3314 23.8254 36.9412 23.5403 37.947C23.3502 38.6281 22.5582 38.7944 21.9721 38.3351C21.2831 37.7807 20.6495 37.155 19.9764 36.5769C19.5408 36.2047 19.2398 35.6582 18.6221 35.5156C18.2736 35.9275 17.9172 36.3393 17.5687 36.7511C17.3787 36.9729 17.2123 37.2342 16.9985 37.4322C16.65 37.7569 16.0877 37.7965 15.7709 37.5589C15.4383 37.3134 15.2878 36.7828 15.5096 36.3631C15.8581 35.7136 16.2541 35.088 16.658 34.4702C17.0935 33.805 17.1094 33.805 16.658 33.1872C16.064 32.4032 15.47 31.6112 14.8602 30.843C14.7493 30.7083 14.5355 30.6608 14.3691 30.5658V29.6788L14.3691 29.6629ZM24.0313 33.306C24.0154 33.2189 24.0234 33.1555 23.9917 33.1239C23.469 32.5457 22.9621 31.9597 22.4156 31.4132C22.3444 31.3419 22.0117 31.3973 21.9167 31.5082C21.4811 31.9597 21.101 32.4744 20.6575 32.9259C19.7704 33.8366 20.0318 33.8446 20.6971 34.5415C20.8 34.6445 20.903 34.7553 21.0218 34.8425C21.4415 35.1513 21.7425 35.7928 22.2731 35.6899C22.5978 35.6265 22.8275 35.0642 23.0967 34.7237C23.366 34.3752 23.6353 34.0267 23.8808 33.6703C23.96 33.5595 23.9917 33.409 24.0313 33.306V33.306Z" fill="black"/>
<path d="M15.5992 0.752027C15.3774 0.65699 15.1557 0.530273 14.926 0.466915C14.4112 0.324359 13.944 0.419396 13.5796 0.831225C13.0965 1.38561 12.6372 1.96375 12.1699 2.53398C11.6235 3.20716 11.4967 3.223 10.9028 2.64486C10.1662 1.91624 9.45343 1.16386 8.70897 0.451075C8.09915 -0.127069 7.57644 -0.150829 6.88742 0.387717C6.15879 0.965861 5.39058 1.50441 4.85995 2.30431C4.57484 2.73197 4.46397 2.70822 4.06006 2.32807C3.77494 2.05879 3.50567 1.76576 3.22848 1.48857C3.12552 1.38561 3.01464 1.28265 2.89585 1.19554C2.49986 0.918343 1.82668 0.950022 1.52573 1.24305C1.26437 1.50441 1.21686 2.09047 1.50197 2.47854C1.8742 3.00125 2.30187 3.47643 2.68994 3.9833C3.07801 4.49017 3.08593 4.55353 2.7533 4.98911C2.35731 5.48806 1.93755 5.97117 1.53364 6.47011C1.38317 6.66019 1.23269 6.85818 1.12181 7.07994C0.923815 7.47593 0.979258 7.98279 1.20101 8.18871C1.56532 8.51342 2.17514 8.57678 2.57113 8.29167C2.80873 8.11743 3.00673 7.89568 3.1968 7.67392C3.52151 7.30169 3.81455 6.9057 4.13926 6.54139C4.41645 6.2246 4.62236 6.20876 4.82828 6.57307C5.3193 7.42049 6.14297 8.03031 6.42808 9.03613C6.61815 9.71723 7.41013 9.88354 7.99619 9.4242C8.68522 8.86981 9.3188 8.24415 9.99198 7.666C10.4276 7.29377 10.7285 6.74731 11.3463 6.60475C11.6947 7.01658 12.0511 7.42841 12.3996 7.84024C12.5897 8.06199 12.756 8.32334 12.9698 8.52134C13.3183 8.84605 13.8806 8.88565 14.1974 8.64806C14.53 8.40254 14.6805 7.87192 14.4587 7.45217C14.1103 6.80275 13.7143 6.17708 13.3104 5.55934C12.8748 4.89408 12.8589 4.89408 13.3104 4.27633C13.9044 3.49227 14.4983 2.7003 15.1082 1.93208C15.219 1.79744 15.4329 1.74992 15.5992 1.65488V0.767867V0.752027ZM5.93704 4.39513C5.95288 4.30801 5.94497 4.24465 5.97664 4.21298C6.49935 3.63483 7.00622 3.04877 7.55269 2.5023C7.62397 2.43102 7.95659 2.48646 8.05163 2.59734C8.48721 3.04877 8.86737 3.56355 9.31088 4.01498C10.1979 4.92576 9.93654 4.93368 9.27128 5.63062C9.16832 5.73357 9.06536 5.84445 8.94657 5.93157C8.52682 6.24044 8.22586 6.88194 7.69524 6.77899C7.37053 6.71563 7.14086 6.15332 6.87158 5.81277C6.60231 5.4643 6.33303 5.11583 6.08752 4.75944C6.00832 4.64856 5.97664 4.49809 5.93704 4.39513V4.39513Z" fill="black"/>
<path d="M15.3691 0.752027C15.5909 0.65699 15.8126 0.530273 16.0423 0.466915C16.5571 0.324359 17.0244 0.419396 17.3887 0.831225C17.8718 1.38561 18.3311 1.96375 18.7984 2.53398C19.3449 3.20716 19.4716 3.223 20.0656 2.64486C20.8021 1.91624 21.5149 1.16386 22.2594 0.451075C22.8692 -0.127069 23.3919 -0.150829 24.0809 0.387717C24.8095 0.965861 25.5777 1.50441 26.1084 2.30431C26.3935 2.73197 26.5044 2.70822 26.9083 2.32807C27.1934 2.05879 27.4627 1.76576 27.7399 1.48857C27.8428 1.38561 27.9537 1.28265 28.0725 1.19554C28.4685 0.918343 29.1417 0.950022 29.4426 1.24305C29.704 1.50441 29.7515 2.09047 29.4664 2.47854C29.0941 3.00125 28.6665 3.47643 28.2784 3.9833C27.8903 4.49017 27.8824 4.55353 28.215 4.98911C28.611 5.48806 29.0308 5.97117 29.4347 6.47011C29.5852 6.66019 29.7356 6.85818 29.8465 7.07994C30.0445 7.47593 29.9891 7.98279 29.7673 8.18871C29.403 8.51342 28.7932 8.57678 28.3972 8.29167C28.1596 8.11743 27.9616 7.89568 27.7715 7.67392C27.4468 7.30169 27.1538 6.9057 26.8291 6.54139C26.5519 6.2246 26.346 6.20876 26.1401 6.57307C25.649 7.42049 24.8254 8.03031 24.5403 9.03613C24.3502 9.71723 23.5582 9.88354 22.9721 9.4242C22.2831 8.86981 21.6495 8.24415 20.9764 7.666C20.5408 7.29377 20.2398 6.74731 19.6221 6.60475C19.2736 7.01658 18.9172 7.42841 18.5687 7.84024C18.3787 8.06199 18.2123 8.32334 17.9985 8.52134C17.65 8.84605 17.0877 8.88565 16.7709 8.64806C16.4383 8.40254 16.2878 7.87192 16.5096 7.45217C16.8581 6.80275 17.2541 6.17708 17.658 5.55934C18.0935 4.89408 18.1094 4.89408 17.658 4.27633C17.064 3.49227 16.47 2.7003 15.8602 1.93208C15.7493 1.79744 15.5355 1.74992 15.3691 1.65488V0.767867L15.3691 0.752027ZM25.0313 4.39513C25.0154 4.30801 25.0234 4.24465 24.9917 4.21298C24.469 3.63483 23.9621 3.04877 23.4156 2.5023C23.3444 2.43102 23.0117 2.48646 22.9167 2.59734C22.4811 3.04877 22.101 3.56355 21.6575 4.01498C20.7704 4.92576 21.0318 4.93368 21.6971 5.63062C21.8 5.73357 21.903 5.84445 22.0218 5.93157C22.4415 6.24044 22.7425 6.88194 23.2731 6.77899C23.5978 6.71563 23.8275 6.15332 24.0967 5.81277C24.366 5.4643 24.6353 5.11583 24.8808 4.75944C24.96 4.64856 24.9917 4.49809 25.0313 4.39513V4.39513Z" fill="black"/>
<path d="M1.20781 21.9077C1.0026 21.2334 1.16384 20.6471 1.62557 20.1414C2.10929 19.6137 2.60767 19.0933 3.07673 18.551C3.46517 18.1039 3.45784 17.7961 3.07673 17.2684C2.79822 16.8873 2.4904 16.5135 2.21923 16.1251C2.07264 15.9199 2.17525 15.4068 2.35848 15.2456C2.62966 15.0111 2.95946 14.9817 3.24529 15.1137C3.5238 15.2383 3.76565 15.4581 4.00018 15.6707C4.67446 16.2717 4.71844 16.6454 5.72252 15.6414C6.05966 15.3042 6.41878 14.9817 6.82188 14.7399C7.07107 14.5933 7.4302 14.5566 7.73069 14.5786C7.94323 14.5933 8.1631 14.7619 8.33166 14.9158C8.50023 15.0697 8.4416 15.6267 8.26571 15.8099C7.76733 16.323 7.2543 16.8213 6.75592 17.3344C6.48474 17.6202 6.50673 18.1406 6.81455 18.4044C7.3569 18.8735 7.92857 19.3059 8.46359 19.7823C8.69812 19.9875 8.91066 20.244 9.04259 20.5225C9.13053 20.7057 9.10121 20.9916 9.02792 21.1968C8.93998 21.468 8.4636 21.6805 8.23639 21.6072C8.00919 21.5339 7.76 21.4899 7.57677 21.358C6.93181 20.8963 6.30885 20.3979 5.67122 19.9142C5.11421 19.4964 4.74775 19.5477 4.23472 20.1121C3.8023 20.5811 3.37722 21.0575 2.93015 21.5119C2.43177 22.025 1.82345 22.0983 1.16384 21.8637L1.20049 21.915L1.20781 21.9077Z" fill="black"/>
<path d="M14.5384 6.92712C14.6557 7.02973 14.7876 7.13234 14.8976 7.24227C15.4546 7.80661 15.5352 8.18039 15.1687 8.69343C14.6117 9.47031 14.0254 10.2325 13.461 11.0021C13.2485 11.2879 13.2778 11.5884 13.527 11.8669C13.8495 12.2187 14.194 12.5558 14.5164 12.9076C14.6777 13.0835 14.8243 13.2668 14.9708 13.4573C15.1321 13.6625 15.1541 14.1463 15.0221 14.3661C14.8609 14.6373 14.2379 14.7985 13.9448 14.6446C13.7322 14.5347 13.5124 14.4321 13.3365 14.2782C12.9773 13.963 12.6475 13.6112 12.3031 13.2888C11.9513 12.9516 11.5555 12.937 11.277 13.2594C10.8519 13.7358 10.4561 14.2415 10.0311 14.7179C9.87714 14.8938 9.68658 15.0551 9.4887 15.1723C9.19553 15.3482 8.88038 15.3262 8.57989 15.1723C8.27207 15.0111 8.1035 14.4467 8.28673 14.1169C8.52126 13.6992 8.75579 13.2814 9.0343 12.9003C9.3128 12.5119 9.65727 12.1747 9.95776 11.801C10.1337 11.5811 10.1337 11.1193 9.95776 10.9068C9.54733 10.4231 9.10026 9.96136 8.70449 9.46298C8.50661 9.22112 8.38201 8.92063 8.24276 8.6348C8.13282 8.4076 8.31605 7.87257 8.54325 7.79928C8.7558 7.73332 9.01231 7.68935 9.22485 7.73332C9.44472 7.78462 9.64994 7.93854 9.83316 8.08512C10.3975 8.52486 10.9398 9.00125 11.5115 9.43366C11.7167 9.58758 11.9879 9.57292 12.1492 9.37503C12.8014 8.56883 13.4317 7.74798 14.0694 6.93445H14.5531L14.5384 6.92712Z" fill="black"/>
<path d="M28.6908 22.3035C28.5955 22.5527 28.5516 22.8018 28.4196 22.9851C27.9872 23.5567 27.5108 24.0991 27.0711 24.6634C26.8292 24.9639 26.8585 25.2424 27.1077 25.5136C27.6501 26.0999 28.1998 26.6789 28.7348 27.2726C28.94 27.5071 28.896 27.9322 28.6762 28.1521C28.4343 28.3939 28.1191 28.5112 27.804 28.4012C27.5108 28.2986 27.2323 28.1227 26.9831 27.9249C26.5434 27.5877 26.1403 27.1993 25.6932 26.8621C25.6053 26.7962 25.3414 26.8255 25.2608 26.9061C24.8577 27.2946 24.5059 27.727 24.1101 28.1227C23.8903 28.3499 23.6411 28.5625 23.3772 28.7237C23.0987 28.8923 22.7763 28.907 22.4684 28.7237C22.1679 28.5478 22.0067 27.9762 22.2046 27.6537C22.5344 27.104 22.8642 26.5543 23.2526 26.0559C24.1175 24.9639 23.9562 25.0739 23.1574 24.0478C22.7176 23.4761 22.2559 22.9264 21.7868 22.3768C21.6402 22.2009 21.4497 22.0103 21.2445 21.9443C20.6875 21.7611 20.2551 21.4166 19.8813 20.9916C18.6353 19.5844 18.584 19.7456 17.3527 21.0942C17.1402 21.3287 16.891 21.5412 16.6198 21.7098C16.4219 21.8271 16.1801 21.8784 15.9456 21.9224C15.6671 21.981 15.242 21.7611 15.1687 21.4899C15.11 21.2701 15.0661 20.9622 15.176 20.8083C15.6451 20.1634 16.1654 19.5551 16.6858 18.9468C17.2648 18.2652 17.2794 18.016 16.6565 17.305C16.2387 16.8213 15.7916 16.3596 15.3739 15.8832C15.176 15.656 15.1833 15.2602 15.3592 14.9817C15.5571 14.6593 16.1288 14.5127 16.422 14.7472C16.9863 15.1943 17.5213 15.6707 18.071 16.1324C18.5254 16.5062 18.8625 16.4842 19.3169 16.0225C19.5441 15.7953 19.7347 15.5387 19.9546 15.3115C20.1231 15.143 20.3064 14.9817 20.4969 14.8425C20.6215 14.7545 20.7754 14.6812 20.9293 14.6519C21.2591 14.5933 21.5596 14.6593 21.7942 14.9304C21.9994 15.1576 22.0653 15.5827 21.8968 15.8246C21.7135 16.0884 21.523 16.3376 21.3251 16.5868C20.9806 17.0265 20.6215 17.4516 20.2844 17.8987C20.1305 18.1039 20.1011 18.3531 20.2624 18.5583C20.9147 19.3718 21.5743 20.1707 22.2559 20.9622C22.4025 21.1308 22.659 21.2041 22.8569 21.3287C23.128 21.4973 23.4139 21.6439 23.6557 21.8491C24.2567 22.3474 24.5719 23.1683 25.422 23.3808C25.9351 22.8825 26.4481 22.3768 26.9611 21.8857C27.3349 21.5266 27.8773 21.446 28.273 21.7391C28.4489 21.8711 28.5442 22.0983 28.6835 22.3035H28.6908Z" fill="black"/>
</g>
<defs>
<clipPath id="clip0_707_14412">
<rect width="29.9683" height="38.5938" fill="white"/>
</clipPath>
</defs>
</svg>
