<svg width="172" height="32" viewBox="0 0 172 32" fill="none" xmlns="http://www.w3.org/2000/svg">
<g clip-path="url(#clip0_731_20258)">
<path fill-rule="evenodd" clip-rule="evenodd" d="M9.04258 6.05285L14.3519 9.68202C14.4718 9.76193 14.6117 9.80569 14.7554 9.80814C14.8993 9.80709 15.0396 9.76321 15.1589 9.68202L20.4723 6.04063C20.6787 5.89261 20.7926 5.64584 20.7719 5.39125C20.7512 5.13662 20.599 4.91186 20.3714 4.7997L15.062 2.16733C14.8606 2.06947 14.626 2.06947 14.4246 2.16733L9.13134 4.7997C8.89962 4.91247 8.74544 5.14158 8.72712 5.40034C8.7088 5.65913 8.82912 5.90803 9.04258 6.05285ZM16.5588 10.8212C16.5592 11.0619 16.6769 11.287 16.8735 11.4234L21.1299 14.3365C21.4024 14.5246 21.7669 14.5011 22.0134 14.2795L25.584 11.0816C25.7431 10.9392 25.8314 10.7331 25.8252 10.5186C25.819 10.3042 25.7188 10.1036 25.5517 9.97089L22.1426 7.24086C21.8948 7.04373 21.5491 7.03057 21.2872 7.2083L16.8735 10.2313C16.6804 10.3652 16.5632 10.5849 16.5588 10.8212ZM5.97233 14.784C6.14435 14.9388 6.23279 15.167 6.21037 15.3984C6.18802 15.6311 6.05381 15.8379 5.85128 15.9517L3.30957 17.4774C3.05191 17.6316 2.72659 17.6094 2.49193 17.4215C2.25728 17.2337 2.16202 16.9192 2.25253 16.6311L3.19255 13.6692C3.26632 13.4345 3.45323 13.2537 3.6888 13.1891C3.9242 13.1205 4.17806 13.1807 4.35853 13.3478L5.97233 14.784ZM19.7582 15.0932L15.1629 11.9441C14.9187 11.7796 14.6002 11.7796 14.356 11.9441L9.76071 15.0932C9.57792 15.2199 9.46214 15.4235 9.44601 15.6466C9.4341 15.8712 9.52299 16.0893 9.68808 16.2406L14.2793 20.3539C14.4117 20.4722 14.5826 20.5373 14.7594 20.537C14.9362 20.537 15.1069 20.4719 15.2396 20.3539L19.8308 16.2406C19.9964 16.0899 20.0841 15.8709 20.0688 15.6466C20.056 15.4235 19.9412 15.2191 19.7582 15.0932ZM7.50141 14.2795L3.9349 11.0816C3.77444 10.9356 3.68588 10.7258 3.69283 10.5079C3.6967 10.2932 3.79594 10.0916 3.96314 9.95868L7.37229 7.21237C7.62182 7.01581 7.96819 7.00268 8.23163 7.17984L12.6413 10.2028C12.846 10.3372 12.9694 10.5668 12.9694 10.8131C12.9694 11.0594 12.846 11.289 12.6413 11.4234L8.38898 14.3365C8.11483 14.5238 7.74977 14.5004 7.50141 14.2795ZM25.8139 18.873L22.1829 16.6963C21.9132 16.5335 21.57 16.5665 21.3357 16.7776L16.8977 20.7445C16.7105 20.9119 16.6226 21.1651 16.6653 21.4137C16.7081 21.6624 16.8754 21.871 17.1075 21.9651L23.2641 24.4632C23.3486 24.4983 23.4391 24.5163 23.5304 24.5161C23.8161 24.517 24.0755 24.3479 24.1921 24.0848L26.1004 19.8047C26.2557 19.466 26.132 19.0637 25.8139 18.873ZM26.3182 13.6692L27.2583 16.6311H27.2502C27.3197 16.8527 27.2802 17.0944 27.1439 17.2818C27.0076 17.4691 26.7908 17.5796 26.5603 17.5791C26.431 17.5796 26.3041 17.5444 26.1932 17.4774L23.6474 15.9517C23.4491 15.8355 23.3195 15.6289 23.3004 15.3984C23.2767 15.1668 23.3653 14.938 23.5385 14.784L25.1523 13.3438C25.3346 13.1801 25.5865 13.1205 25.822 13.1851C26.0574 13.2524 26.2437 13.4342 26.3182 13.6692ZM12.8511 21.4117C12.8945 21.1641 12.8075 20.9116 12.6212 20.7445L8.18324 16.7776C7.94888 16.5665 7.60563 16.5335 7.33599 16.6963L3.70493 18.873C3.39055 19.0645 3.26616 19.4617 3.41446 19.8006L5.3268 24.0807C5.48523 24.4376 5.89485 24.6047 6.25473 24.4591L12.4073 21.961C12.6395 21.8677 12.8074 21.66 12.8511 21.4117ZM15.0297 22.6323L19.968 24.6341C20.2094 24.7375 20.3762 24.9649 20.4037 25.2281C20.4349 25.4945 20.3168 25.7563 20.0971 25.9075L15.1548 29.3455C15.0364 29.4288 14.8958 29.4742 14.7514 29.4757C14.6071 29.4734 14.4667 29.4281 14.3479 29.3455L9.40971 25.9075C9.18917 25.7567 9.06957 25.4951 9.09904 25.2281C9.13201 24.9622 9.30482 24.735 9.5509 24.6341L14.4891 22.6323C14.6628 22.563 14.8561 22.563 15.0297 22.6323Z" fill="white"/>
<mask id="mask0_731_20258" style="mask-type:luminance" maskUnits="userSpaceOnUse" x="35" y="5" width="137" height="27">
<path d="M171.908 5.29999H35.9023V32H171.908V5.29999Z" fill="white"/>
</mask>
<g mask="url(#mask0_731_20258)">
<path d="M40.021 15.2294H41.3496C42.6516 15.2294 43.6126 15.0111 44.2327 14.5746C44.8527 14.138 45.1627 13.452 45.1627 12.5165C45.1627 11.59 44.8438 10.9307 44.2061 10.5387C43.5772 10.1467 42.5985 9.95065 41.2698 9.95065H40.021V15.2294ZM40.021 18.5971V26.0943H35.9023V6.55621H41.5622C44.2017 6.55621 46.1547 7.04177 47.4213 8.01288C48.6879 8.97508 49.3212 10.4407 49.3212 12.4096C49.3212 13.5589 49.0068 14.5835 48.3779 15.4833C47.749 16.3742 46.8589 17.0736 45.7074 17.5815C48.6304 21.9737 50.5347 24.8113 51.4205 26.0943H46.85L42.2132 18.5971H40.021Z" fill="white"/>
<path d="M57.3751 13.7727C56.516 13.7727 55.8428 14.0489 55.3556 14.6013C54.8684 15.1448 54.5895 15.9199 54.5186 16.9266H60.205C60.1873 15.9199 59.9261 15.1448 59.4212 14.6013C58.9164 14.0489 58.2343 13.7727 57.3751 13.7727ZM57.9464 26.3615C55.555 26.3615 53.686 25.6978 52.3397 24.3703C50.9934 23.0428 50.3203 21.1629 50.3203 18.7307C50.3203 16.2272 50.9402 14.2939 52.1803 12.9308C53.4292 11.5588 55.1519 10.8728 57.3485 10.8728C59.4477 10.8728 61.082 11.4741 62.2511 12.6769C63.4203 13.8796 64.0049 15.5412 64.0049 17.6616V19.6395H54.4256C54.4699 20.7977 54.8109 21.702 55.4486 22.3523C56.0864 23.0028 56.981 23.3279 58.1324 23.3279C59.0271 23.3279 59.8729 23.2344 60.67 23.0473C61.4673 22.8602 62.2999 22.5617 63.1679 22.1519V25.3058C62.4593 25.6622 61.702 25.9249 60.8959 26.0943C60.0899 26.2724 59.1068 26.3615 57.9464 26.3615Z" fill="white"/>
<path d="M70.9134 26.3615C69.1684 26.3615 67.7956 25.68 66.7946 24.3168C65.8026 22.9537 65.3066 21.065 65.3066 18.6506C65.3066 16.2005 65.8115 14.2939 66.8212 12.9308C67.8398 11.5588 69.2393 10.8728 71.0196 10.8728C72.8886 10.8728 74.3146 11.6033 75.2978 13.0644H75.4307C75.2269 11.9508 75.1251 10.9574 75.1251 10.0843V5.29999H79.1905V26.0943H76.0816L75.2978 24.1565H75.1251C74.2039 25.6266 72.7999 26.3615 70.9134 26.3615ZM72.3349 23.1141C73.3713 23.1141 74.1286 22.8113 74.6069 22.2053C75.0941 21.5995 75.3598 20.5705 75.404 19.1183V18.6773C75.404 17.0736 75.1561 15.9243 74.6601 15.2294C74.1729 14.5345 73.3758 14.187 72.2685 14.187C71.3651 14.187 70.661 14.5746 70.1561 15.3497C69.6601 16.1159 69.412 17.234 69.412 18.704C69.412 20.1741 69.6644 21.2789 70.1693 22.0183C70.6741 22.7489 71.3961 23.1141 72.3349 23.1141Z" fill="white"/>
<path d="M94.5504 26.0943L93.4078 20.869L91.8666 14.2672H91.7737L89.0633 26.0943H84.7055L80.4805 11.1534H84.5194L86.2334 17.7685C86.508 18.9535 86.7869 20.5883 87.0704 22.6731H87.1501C87.1856 21.9959 87.3405 20.9225 87.6151 19.4524L87.8276 18.3165L89.6611 11.1534H94.1252L95.8658 18.3165C95.9012 18.5125 95.9544 18.802 96.0252 19.1851C96.1049 19.5682 96.1803 19.9781 96.2511 20.4147C96.322 20.8423 96.3839 21.2654 96.4371 21.6841C96.4991 22.094 96.5346 22.4237 96.5434 22.6731H96.6231C96.7028 22.0316 96.8445 21.1541 97.0483 20.0404C97.252 18.9178 97.3981 18.1606 97.4868 17.7685L99.2671 11.1534H103.239L98.9615 26.0943H94.5504Z" fill="white"/>
<path d="M107.784 18.5971C107.784 20.076 108.023 21.1941 108.501 21.9514C108.988 22.7088 109.777 23.0874 110.866 23.0874C111.947 23.0874 112.722 22.7132 113.191 21.9648C113.669 21.2075 113.909 20.085 113.909 18.5971C113.909 17.1182 113.669 16.009 113.191 15.2695C112.713 14.53 111.929 14.1603 110.84 14.1603C109.759 14.1603 108.979 14.53 108.501 15.2695C108.023 16.0001 107.784 17.1093 107.784 18.5971ZM118.054 18.5971C118.054 21.0293 117.416 22.9315 116.141 24.3035C114.865 25.6755 113.089 26.3615 110.813 26.3615C109.387 26.3615 108.129 26.0497 107.04 25.4261C105.95 24.7935 105.113 23.8892 104.529 22.7132C103.944 21.5371 103.652 20.1651 103.652 18.5971C103.652 16.156 104.285 14.2583 105.552 12.9041C106.818 11.5499 108.599 10.8728 110.893 10.8728C112.319 10.8728 113.576 11.1846 114.666 11.8082C115.755 12.4319 116.593 13.3273 117.177 14.4944C117.762 15.6615 118.054 17.0291 118.054 18.5971Z" fill="white"/>
<path d="M123.542 18.5971C123.542 20.076 123.781 21.1941 124.26 21.9514C124.747 22.7088 125.535 23.0874 126.625 23.0874C127.705 23.0874 128.48 22.7132 128.95 21.9648C129.428 21.2075 129.667 20.085 129.667 18.5971C129.667 17.1182 129.428 16.009 128.95 15.2695C128.471 14.53 127.687 14.1603 126.598 14.1603C125.517 14.1603 124.738 14.53 124.26 15.2695C123.781 16.0001 123.542 17.1093 123.542 18.5971ZM133.812 18.5971C133.812 21.0293 133.175 22.9315 131.899 24.3035C130.624 25.6755 128.848 26.3615 126.571 26.3615C125.145 26.3615 123.888 26.0497 122.798 25.4261C121.709 24.7935 120.872 23.8892 120.287 22.7132C119.702 21.5371 119.41 20.1651 119.41 18.5971C119.41 16.156 120.044 14.2583 121.31 12.9041C122.577 11.5499 124.357 10.8728 126.651 10.8728C128.077 10.8728 129.335 11.1846 130.424 11.8082C131.514 12.4319 132.351 13.3273 132.936 14.4944C133.52 15.6615 133.812 17.0291 133.812 18.5971Z" fill="white"/>
<path d="M140.775 26.3615C139.03 26.3615 137.657 25.68 136.656 24.3168C135.664 22.9537 135.168 21.065 135.168 18.6506C135.168 16.2005 135.673 14.2939 136.683 12.9308C137.702 11.5588 139.101 10.8728 140.882 10.8728C142.75 10.8728 144.177 11.6033 145.16 13.0644H145.292C145.089 11.9508 144.987 10.9574 144.987 10.0843V5.29999H149.052V26.0943H145.943L145.16 24.1565H144.987C144.066 25.6266 142.662 26.3615 140.775 26.3615ZM142.197 23.1141C143.233 23.1141 143.99 22.8113 144.469 22.2053C144.956 21.5995 145.222 20.5705 145.266 19.1183V18.6773C145.266 17.0736 145.018 15.9243 144.522 15.2294C144.035 14.5345 143.238 14.187 142.13 14.187C141.227 14.187 140.523 14.5746 140.018 15.3497C139.522 16.1159 139.274 17.234 139.274 18.704C139.274 20.1741 139.526 21.2789 140.031 22.0183C140.536 22.7489 141.258 23.1141 142.197 23.1141Z" fill="white"/>
<path d="M150.49 31.8408C149.56 31.8408 148.75 31.7428 148.059 31.5468V28.0988C148.768 28.277 149.414 28.3661 149.999 28.3661C150.902 28.3661 151.549 28.0811 151.939 27.5109C152.328 26.9496 152.523 26.0676 152.523 24.8648V6.55621H156.642V24.838C156.642 27.1188 156.124 28.8562 155.087 30.0499C154.051 31.2438 152.519 31.8408 150.49 31.8408Z" fill="white"/>
<path d="M171.908 20.6686C171.908 22.4325 171.275 23.8224 170.008 24.838C168.75 25.8537 166.996 26.3615 164.747 26.3615C162.674 26.3615 160.841 25.9695 159.246 25.1855V21.3368C160.557 21.9247 161.664 22.339 162.568 22.5795C163.48 22.8201 164.313 22.9404 165.066 22.9404C165.969 22.9404 166.66 22.7667 167.138 22.4192C167.625 22.0717 167.869 21.555 167.869 20.869C167.869 20.4859 167.763 20.1474 167.55 19.8533C167.337 19.5504 167.023 19.2608 166.607 18.9847C166.199 18.7085 165.362 18.2675 164.096 17.6616C162.909 17.1004 162.019 16.5613 161.425 16.0446C160.832 15.5279 160.358 14.9265 160.004 14.2405C159.649 13.5545 159.472 12.7526 159.472 11.835C159.472 10.1066 160.052 8.7479 161.212 7.75896C162.382 6.77003 163.994 6.27557 166.049 6.27557C167.058 6.27557 168.019 6.39584 168.932 6.63639C169.853 6.87695 170.814 7.21549 171.815 7.65205L170.486 10.8728C169.45 10.4451 168.591 10.1466 167.909 9.97738C167.235 9.8081 166.571 9.72345 165.916 9.72345C165.136 9.72345 164.539 9.9061 164.122 10.2714C163.706 10.6367 163.498 11.1133 163.498 11.7013C163.498 12.0666 163.582 12.3873 163.75 12.6635C163.918 12.9308 164.184 13.1936 164.547 13.452C164.919 13.7015 165.792 14.1558 167.165 14.8151C168.98 15.6882 170.225 16.5658 170.898 17.4478C171.571 18.3209 171.908 19.3945 171.908 20.6686Z" fill="white"/>
</g>
</g>
<defs>
<clipPath id="clip0_731_20258">
<rect width="172" height="32" fill="white"/>
</clipPath>
</defs>
</svg>
