<svg width="227" height="47" viewBox="0 0 227 47" fill="none" xmlns="http://www.w3.org/2000/svg">
<g clip-path="url(#clip0_646_63558)">
<path d="M0.191178 2.13954C0.305917 2.25951 0.527746 2.97936 0.680732 3.7392C0.833717 4.48904 1.12439 5.5988 1.32327 6.19867C1.52215 6.79855 1.69044 7.39842 1.69044 7.53839C1.69044 7.71835 2.15704 7.81833 3.31208 7.88831C4.29884 7.9483 5.02552 8.08827 5.17086 8.23824C5.3009 8.37821 5.49978 8.4482 5.61452 8.39821C5.72926 8.33822 6.16526 8.4082 6.58597 8.54817C7.00669 8.68814 8.53654 8.86811 9.9899 8.94809C11.4433 9.02807 13.1491 9.13805 13.7916 9.19804C14.4341 9.25802 20.4006 9.32801 27.0554 9.358C33.7103 9.388 40.0975 9.46798 41.2449 9.53796C42.3999 9.60795 44.7329 9.70793 46.4387 9.76792C49.6591 9.87789 52.4893 9.99787 56.2068 10.1678C57.4001 10.2178 59.8403 10.3178 61.6378 10.3778C66.0056 10.5178 69.3407 10.6577 71.406 10.7777C76.4315 11.0776 80.6463 11.3076 82.6504 11.3876C83.8896 11.4376 85.7407 11.5675 86.7581 11.6775C87.7831 11.7875 89.5883 11.9275 90.7739 11.9874C91.9596 12.0474 92.9769 12.1374 93.0458 12.1874C93.1988 12.3074 99.4406 12.8473 102.408 12.9872C103.678 13.0472 104.787 13.1572 104.872 13.2272C104.963 13.2972 105.529 13.3771 106.134 13.3971C106.738 13.4171 108.39 13.5871 109.798 13.7671C111.205 13.947 112.704 14.137 113.133 14.187C113.561 14.237 114.188 14.3369 114.525 14.3969C114.869 14.4669 115.596 14.5669 116.154 14.6169C117.577 14.7469 118.48 14.9368 118.48 15.1068C118.48 15.1868 117.6 15.3567 116.529 15.4867C115.458 15.6167 114.456 15.8166 114.295 15.9266C114.142 16.0366 113.462 16.1666 112.796 16.2265C112.123 16.2865 110.387 16.5665 108.941 16.8564C105.904 17.4563 104.328 17.7162 102.584 17.9162C101.904 17.9962 101.238 18.1461 101.108 18.2561C100.978 18.3661 99.8613 18.606 98.6298 18.796C97.3906 18.986 95.7154 19.2859 94.9045 19.4658C94.0937 19.6458 92.8698 19.8658 92.1738 19.9557C91.4853 20.0457 90.8198 20.1957 90.6974 20.2957C90.4833 20.4756 88.6321 20.8156 86.062 21.1755C85.3353 21.2755 84.3562 21.5054 83.8896 21.6854C83.0252 22.0153 79.2312 22.6752 79.1088 22.5152C79.0705 22.4652 78.8946 22.5352 78.7187 22.6552C78.5351 22.7851 77.8314 22.9151 77.1506 22.9651C76.4698 23.0151 75.6972 23.1351 75.4448 23.255C74.7334 23.585 73.7237 23.8349 72.1862 24.0449C71.4213 24.1549 70.4039 24.3648 69.9373 24.5248C69.4707 24.6847 68.0709 25.0147 66.8317 25.2546C65.5925 25.4946 64.0244 25.8345 63.3436 26.0045C61.5231 26.4544 60.2916 26.7043 59.8632 26.7143C59.6567 26.7143 59.2742 26.8443 59.0065 26.9843C58.7388 27.1242 58.0044 27.3442 57.3695 27.4741C56.2068 27.7041 55.2124 27.954 54.0344 28.294C53.6902 28.3939 52.8565 28.6239 52.1757 28.8039C51.4949 28.9838 50.6229 29.2238 50.2404 29.3437C49.3148 29.6137 46.6605 30.2436 44.7329 30.6435C43.8762 30.8234 42.9353 31.1134 42.637 31.2833C42.3387 31.4633 41.7803 31.6733 41.3978 31.7532C40.7247 31.8932 39.8603 32.1432 37.6726 32.833C37.1219 33.003 36.0739 33.2929 35.3473 33.4629C34.6206 33.6428 33.718 33.8828 33.3279 34.0028C32.9454 34.1227 32.1652 34.3227 31.5915 34.4527C31.0178 34.5726 30.467 34.7926 30.3599 34.9326C30.2528 35.0725 29.9239 35.1825 29.6256 35.1825C29.3273 35.1825 28.8683 35.2725 28.6082 35.3725C26.956 36.0323 26.3976 36.1923 25.8086 36.1923C25.4491 36.1923 24.7377 36.3823 24.2405 36.6222C23.7357 36.8522 22.9401 37.1121 22.4735 37.1921C22.0069 37.2721 21.3797 37.472 21.0814 37.642C20.3853 38.0419 19.4291 38.2918 18.8248 38.2319C18.5647 38.2119 17.8151 38.3818 17.1573 38.6118C16.4994 38.8417 15.5662 39.0317 15.069 39.0317C14.5795 39.0317 13.7304 39.1317 13.195 39.2416C12.453 39.4016 12.0782 39.3916 11.6651 39.1917C11.1602 38.9517 11.099 38.9717 10.8237 39.4116C10.663 39.6715 10.5254 40.0615 10.5254 40.2814C10.5254 40.9113 11.5504 43.2108 12.3459 44.3606C12.4836 44.5605 12.7742 45.2004 13.0037 45.7803L13.4091 46.84L14.4112 46.94C14.9619 47 16.1476 46.98 17.0425 46.9C18.7713 46.75 24.7148 45.4903 25.8851 45.0204C26.2676 44.8704 27.2084 44.5905 27.981 44.4105C29.4267 44.0706 31.3926 43.4507 32.4788 42.9808C33.1749 42.6809 34.6741 42.311 36.8236 41.9011C37.2519 41.8211 37.7032 41.6711 37.8256 41.5711C37.948 41.4712 38.3381 41.3112 38.6823 41.2312C39.0266 41.1412 40.0057 40.8813 40.8624 40.6513C41.7191 40.4214 42.7441 40.1515 43.1495 40.0515C43.5549 39.9515 43.9756 39.8015 44.0751 39.7115C44.1822 39.6216 44.8247 39.4416 45.5132 39.2916C46.2016 39.1417 46.9589 38.9817 47.2113 38.9317C47.4637 38.8817 48.1292 38.6918 48.6876 38.5218C50.3628 38.0119 50.9135 37.8519 51.5637 37.712C51.908 37.642 52.4969 37.502 52.8794 37.402C53.2619 37.3021 53.9733 37.1421 54.4628 37.0321C54.9524 36.9221 55.419 36.7822 55.5031 36.7122C55.5949 36.6422 56.5205 36.4022 57.5684 36.1923C58.6164 35.9723 59.9932 35.6624 60.6358 35.4924C61.2783 35.3225 62.3186 35.0625 62.9612 34.8926C63.6037 34.7326 64.6516 34.4427 65.2865 34.2527C65.9291 34.0627 67.2524 33.7928 68.2315 33.6528C69.2106 33.5129 70.2586 33.3029 70.5569 33.1929C70.8552 33.073 71.5207 32.923 72.0332 32.863C72.5457 32.793 73.456 32.6131 74.0526 32.4531C76.5845 31.7932 77.0282 31.6932 77.6172 31.6233C78.864 31.4833 80.7457 31.1134 81.6483 30.8334C82.1608 30.6735 83.2776 30.4435 84.1267 30.3035C84.9834 30.1736 86.1079 29.9336 86.6357 29.7737C87.1635 29.6137 88.4868 29.3537 89.5806 29.1838C90.6745 29.0138 92.2044 28.7439 92.9693 28.5739C95.0575 28.114 98.4921 27.4342 99.0199 27.3942C99.2723 27.3742 99.6624 27.2842 99.8766 27.2142C100.091 27.1342 101.208 26.9343 102.355 26.7743C103.51 26.6043 104.864 26.3844 105.376 26.2744C107.442 25.8545 108.39 25.6645 109.874 25.3746C110.731 25.2046 111.917 24.9747 112.513 24.8547C113.11 24.7347 114.334 24.5048 115.229 24.3348C116.124 24.1649 117.279 23.9449 117.791 23.8349C118.74 23.635 120.216 23.365 122.442 22.9951C123.123 22.8851 124.347 22.6452 125.157 22.4752C125.968 22.3052 127.36 22.0353 128.263 21.8753C130.925 21.4154 131.705 21.2555 132.608 21.0155C133.908 20.6656 137.289 19.9557 137.725 19.9457C138.146 19.9258 139.951 19.5858 143.08 18.926C145.466 18.4261 147.945 18.4061 151.127 18.866C152.312 19.0359 153.36 19.1659 153.452 19.1459C153.552 19.1259 153.942 19.1759 154.324 19.2559C154.707 19.3359 155.617 19.4858 156.344 19.5858C157.07 19.6858 158.363 19.8958 159.212 20.0657C160.069 20.2257 161.423 20.4156 162.233 20.4856C163.044 20.5556 164.161 20.6956 164.712 20.7956C167.458 21.3055 170.502 21.8054 171.612 21.9153C172.292 21.9853 173.34 22.1853 173.937 22.3452C174.992 22.6452 176.079 22.8051 179.75 23.235C180.729 23.345 181.709 23.525 181.923 23.625C182.343 23.8249 182.711 23.8949 186.222 24.4348C187.01 24.5548 187.828 24.7447 188.05 24.8547C188.272 24.9647 188.608 25.0547 188.792 25.0447C188.983 25.0447 189.802 25.1346 190.612 25.2546C191.423 25.3746 192.578 25.5146 193.175 25.5746C193.771 25.6345 194.368 25.7345 194.491 25.8045C194.712 25.9245 198.093 26.5143 200.618 26.8743C201.298 26.9743 202.277 27.1942 202.79 27.3642C203.302 27.5341 204.419 27.7441 205.268 27.8141C206.125 27.8841 206.959 28.054 207.127 28.174C207.295 28.294 207.716 28.4139 208.06 28.4339C208.405 28.4539 209.062 28.5739 209.537 28.7039C210.003 28.8339 211.296 29.0238 212.405 29.1238C214.83 29.3337 217.041 29.7537 217.675 30.1136C217.928 30.2636 218.907 30.4635 219.848 30.5535C220.789 30.6535 221.974 30.8134 222.487 30.9234C222.999 31.0334 224.024 31.2333 224.766 31.3633C226.327 31.6433 226.442 31.5833 226.832 30.2336C227.069 29.4237 227.069 29.3138 226.832 28.7139C226.694 28.354 226.595 27.8541 226.625 27.5841C226.694 26.8943 225.898 25.8645 225.302 25.8645C225.049 25.8645 224.399 25.5945 223.856 25.2546C223.313 24.9247 222.632 24.6447 222.342 24.6447C222.051 24.6447 221.768 24.5548 221.722 24.4548C221.508 23.9949 219.58 23.0751 218.754 23.0251C218.111 22.9951 217.178 22.8251 216.444 22.6252C216.016 22.5052 215.595 22.4452 215.495 22.4952C215.396 22.5452 215.121 22.4252 214.868 22.2253C214.417 21.8653 212.772 21.4154 210.317 20.9755C209.59 20.8456 208.856 20.6456 208.688 20.5256C208.382 20.3157 206.859 20.0057 204.037 19.5658C203.272 19.4459 202.423 19.2659 202.155 19.1559C201.887 19.0459 201.054 18.876 200.296 18.766C199.539 18.656 198.575 18.4861 198.147 18.3861C196.709 18.0262 195.049 17.7262 193.649 17.5563C192.066 17.3663 189.304 16.8264 189.113 16.6764C188.929 16.5265 186.681 16.1366 185.273 16.0066C184.592 15.9466 183.942 15.7966 183.843 15.6867C183.736 15.5767 183.001 15.4167 182.206 15.3367C181.41 15.2567 180.676 15.1268 180.576 15.0468C180.477 14.9668 179.613 14.8168 178.664 14.7169C177.027 14.5469 176.668 14.4469 176.844 14.217C176.89 14.157 178.205 14.017 179.781 13.897C181.349 13.7771 182.986 13.5571 183.414 13.3971C184.087 13.1572 186.551 12.9372 190.161 12.7873C190.712 12.7673 191.829 12.6873 192.639 12.6173C193.45 12.5473 195.049 12.4373 196.189 12.3874C197.328 12.3274 198.728 12.1974 199.294 12.0974C199.86 11.9874 201.367 11.8975 202.645 11.8875C206.836 11.8575 215.274 11.1476 217.148 10.6577C217.614 10.5378 218.196 10.4478 218.44 10.4578C218.945 10.4878 219.825 9.8379 220.169 9.18804C220.483 8.60816 220.475 6.24866 220.169 5.71878C220.047 5.49882 219.94 5.1189 219.94 4.86896C219.94 4.61901 219.779 4.2191 219.588 3.97915C219.282 3.59923 219.136 3.56923 218.387 3.69921C217.507 3.85917 215.717 3.91916 213.813 3.83918C213.216 3.81918 212.137 3.83918 211.411 3.88917C210.684 3.93915 209.881 3.97915 209.628 3.97915C205.391 3.94915 201.26 3.98914 199.746 4.08912C198.698 4.15911 196.931 4.25909 195.821 4.31907C194.712 4.37906 193.458 4.45904 193.03 4.49904C192.601 4.53903 191.347 4.57902 190.238 4.57902C189.128 4.57902 187.629 4.679 186.902 4.79897C186.176 4.91895 184.638 5.03892 183.491 5.07891C182.336 5.1189 180.661 5.25887 179.766 5.37885C177.433 5.69878 176.193 5.81875 174.258 5.91873C171.887 6.04871 169.569 6.32865 168.827 6.58859C168.483 6.70857 168.085 6.75855 167.932 6.69857C167.779 6.63858 167.221 6.72856 166.693 6.89852C166.165 7.06849 165.592 7.20846 165.416 7.20846C165.247 7.20846 164.72 7.25845 164.253 7.31844C163.786 7.37842 162.562 7.42841 161.537 7.43841C160.512 7.43841 159.258 7.56838 158.745 7.72835C157.774 8.01829 154.905 8.34822 154.079 8.26823C153.796 8.23824 153.521 8.35821 153.399 8.53818C153.253 8.75813 152.917 8.85811 152.244 8.85811C151.723 8.85811 150.874 8.98808 150.362 9.14805C148.717 9.64794 145.497 9.73792 143.149 9.358C141.994 9.16804 140.739 8.98808 140.357 8.94809C139.974 8.9181 139.133 8.78812 138.498 8.66815C137.48 8.47819 135.469 8.23824 132.6 7.9583C132.134 7.90831 131.292 7.76834 130.741 7.62837C130.191 7.4884 129.173 7.35843 128.493 7.32843C126.94 7.25845 123.283 6.87853 121.746 6.62858C121.103 6.5286 119.849 6.37864 118.954 6.30865C118.059 6.23867 116.904 6.04871 116.391 5.89874C115.879 5.73877 114.831 5.6188 114.066 5.6088C113.301 5.6088 112.184 5.50882 111.588 5.38885C110.991 5.27887 109.836 5.1389 109.025 5.09891C108.214 5.04892 106.96 4.91895 106.233 4.80897C104.963 4.60901 104.443 4.55902 101.047 4.28908C100.198 4.21909 99.4559 4.12911 99.3947 4.07912C99.2952 3.99914 93.1223 3.51924 92.2732 3.52924C92.059 3.52924 90.5598 3.40927 88.9381 3.2693C87.3165 3.11933 85.886 3.01935 85.756 3.03935C85.626 3.05934 84.4786 2.99935 83.1935 2.89938C81.9161 2.8094 80.172 2.68942 79.3153 2.63943C78.4586 2.58944 77.4489 2.51946 77.0664 2.47947C76.684 2.43947 74.7946 2.34949 72.8823 2.27951C70.9623 2.20952 68.0403 2.05955 66.3804 1.94958C63.3054 1.73962 58.6317 1.49967 58.0733 1.51967C54.5469 1.64964 49.2842 1.47968 48.963 1.22973C48.8712 1.14975 46.3775 1.05977 43.4249 1.01978C35.4161 0.909799 34.0545 0.909799 26.1146 1.05977C22.1064 1.12975 18.5953 1.18974 18.32 1.17974C18.0446 1.17974 17.6239 1.16974 17.3868 1.17974C16.859 1.17974 9.64569 1.12975 5.61452 1.08976C3.13615 1.05977 2.59305 0.99978 2.35592 0.729837C2.20294 0.549876 1.80518 0.289931 1.47626 0.159959C0.894911 -0.0799903 0.871964 -0.0699924 0.435955 0.589867C-0.0535991 1.32971 -0.130092 1.79961 0.191178 2.13954Z" fill="black"/>
</g>
<defs>
<clipPath id="clip0_646_63558">
<rect width="227" height="47" fill="white"/>
</clipPath>
</defs>
</svg>
