<svg width="172" height="32" viewBox="0 0 172 32" fill="none" xmlns="http://www.w3.org/2000/svg">
<path fill-rule="evenodd" clip-rule="evenodd" d="M13.0486 1.09631C11.9138 1.66766 9.52182 2.78001 8.22599 3.66737C6.93016 4.55475 7.09126 5.38142 6.52391 5.95277C5.95656 6.52412 4.25448 7.95248 3.11974 8.80949C1.98502 9.66653 2.2687 11.9519 1.98502 12.8089C1.70133 13.666 1.13397 15.6657 0.850293 16.5227C0.566612 17.3797 1.41765 18.5224 1.98502 19.6651C2.55238 20.8078 3.97077 23.9502 4.53815 25.0929C5.1055 26.2356 6.80758 25.6643 8.22599 26.807C9.6444 27.9497 11.6302 29.378 13.0486 30.235C14.467 31.0921 15.0343 31.0921 16.4527 30.235C17.8711 29.378 19.8569 27.9497 21.2753 26.807C22.6937 25.6643 24.3958 26.2356 24.9631 25.0929C25.5305 23.9502 26.9489 20.8078 27.5163 19.6651C28.0836 18.5224 28.9347 17.3797 28.651 16.5227C28.3673 15.6657 27.8 13.666 27.5163 12.8089C27.2326 11.9519 27.5163 9.66653 26.3816 8.80949C25.2469 7.95248 23.9297 6.86126 22.9774 5.95277C22.0251 5.04428 22.41 4.52441 21.2753 3.66737C20.1406 2.81035 17.5875 1.66766 16.4527 1.09631C15.318 0.524964 14.1833 0.524964 13.0486 1.09631V1.09631Z" fill="white"/>
<path fill-rule="evenodd" clip-rule="evenodd" d="M9.04209 6.05285L14.3514 9.68202C14.4713 9.76193 14.6112 9.80569 14.7549 9.80814C14.8988 9.80709 15.0391 9.76321 15.1584 9.68202L20.4718 6.04063C20.6782 5.89261 20.7921 5.64584 20.7714 5.39125C20.7507 5.13662 20.5985 4.91186 20.3709 4.7997L15.0615 2.16733C14.8601 2.06947 14.6255 2.06947 14.4241 2.16733L9.13085 4.7997C8.89913 4.91247 8.74495 5.14158 8.72663 5.40034C8.70831 5.65913 8.82863 5.90803 9.04209 6.05285ZM16.5583 10.8212C16.5587 11.0619 16.6764 11.287 16.873 11.4234L21.1294 14.3365C21.4019 14.5246 21.7664 14.5011 22.0129 14.2795L25.5835 11.0816C25.7426 10.9392 25.8309 10.7331 25.8247 10.5186C25.8185 10.3042 25.7183 10.1036 25.5512 9.97089L22.1421 7.24086C21.8943 7.04373 21.5486 7.03057 21.2867 7.2083L16.873 10.2313C16.6799 10.3652 16.5627 10.5849 16.5583 10.8212V10.8212ZM5.97184 14.784C6.14386 14.9388 6.2323 15.167 6.20988 15.3984C6.18753 15.6311 6.05332 15.8379 5.85079 15.9517L3.30908 17.4774C3.05142 17.6316 2.7261 17.6094 2.49144 17.4215C2.25679 17.2337 2.16153 16.9192 2.25204 16.6311L3.19206 13.6692C3.26583 13.4345 3.45274 13.2537 3.68831 13.1891C3.92371 13.1205 4.17757 13.1807 4.35804 13.3478L5.97184 14.784ZM19.7577 15.0932L15.1624 11.9441C14.9182 11.7796 14.5997 11.7796 14.3555 11.9441L9.76022 15.0932C9.57743 15.2199 9.46165 15.4235 9.44552 15.6466C9.43361 15.8712 9.5225 16.0893 9.68759 16.2406L14.2788 20.3539C14.4112 20.4722 14.5821 20.5373 14.7589 20.537C14.9357 20.537 15.1064 20.4719 15.2391 20.3539L19.8303 16.2406C19.9959 16.0899 20.0836 15.8709 20.0683 15.6466C20.0555 15.4235 19.9407 15.2191 19.7577 15.0932V15.0932ZM7.50092 14.2795L3.93441 11.0816C3.77395 10.9356 3.68539 10.7258 3.69234 10.5079C3.69621 10.2932 3.79545 10.0916 3.96265 9.95868L7.3718 7.21237C7.62133 7.01581 7.9677 7.00268 8.23114 7.17984L12.6408 10.2028C12.8455 10.3372 12.9689 10.5668 12.9689 10.8131C12.9689 11.0594 12.8455 11.289 12.6408 11.4234L8.38849 14.3365C8.11434 14.5238 7.74928 14.5004 7.50092 14.2795ZM25.8134 18.873L22.1824 16.6963C21.9127 16.5335 21.5695 16.5665 21.3352 16.7776L16.8972 20.7445C16.71 20.9119 16.6221 21.1651 16.6648 21.4137C16.7076 21.6624 16.8749 21.871 17.107 21.9651L23.2636 24.4632C23.3481 24.4983 23.4386 24.5163 23.5299 24.5161C23.8156 24.517 24.075 24.3479 24.1916 24.0848L26.0999 19.8047C26.2552 19.466 26.1315 19.0637 25.8134 18.873V18.873ZM26.3177 13.6692L27.2578 16.6311H27.2497C27.3192 16.8527 27.2797 17.0944 27.1434 17.2818C27.0071 17.4691 26.7903 17.5796 26.5598 17.5791C26.4305 17.5796 26.3036 17.5444 26.1927 17.4774L23.6469 15.9517C23.4486 15.8355 23.319 15.6289 23.2999 15.3984C23.2762 15.1668 23.3648 14.938 23.538 14.784L25.1518 13.3438C25.3341 13.1801 25.586 13.1205 25.8215 13.1851C26.0569 13.2524 26.2432 13.4342 26.3177 13.6692V13.6692ZM12.8506 21.4117C12.894 21.1641 12.807 20.9116 12.6207 20.7445L8.18275 16.7776C7.94839 16.5665 7.60514 16.5335 7.3355 16.6963L3.70444 18.873C3.39006 19.0645 3.26567 19.4617 3.41397 19.8006L5.32631 24.0807C5.48474 24.4376 5.89436 24.6047 6.25424 24.4591L12.4068 21.961C12.639 21.8677 12.8069 21.66 12.8506 21.4117ZM15.0292 22.6323L19.9675 24.6341C20.2089 24.7375 20.3757 24.9649 20.4032 25.2281C20.4344 25.4945 20.3163 25.7563 20.0966 25.9075L15.1543 29.3455C15.0359 29.4288 14.8953 29.4742 14.7509 29.4757C14.6066 29.4734 14.4662 29.4281 14.3474 29.3455L9.40922 25.9075C9.18868 25.7567 9.06908 25.4951 9.09855 25.2281C9.13152 24.9622 9.30433 24.735 9.55041 24.6341L14.4886 22.6323C14.6623 22.563 14.8556 22.563 15.0292 22.6323Z" fill="#8E1515"/>
<g clip-path="url(#clip0_626_15380)">
<path d="M40.0201 15.2294H41.3487C42.6507 15.2294 43.6117 15.0111 44.2318 14.5746C44.8518 14.138 45.1618 13.452 45.1618 12.5165C45.1618 11.59 44.8429 10.9307 44.2052 10.5387C43.5763 10.1467 42.5976 9.95065 41.2689 9.95065H40.0201V15.2294ZM40.0201 18.5971V26.0943H35.9014V6.55621H41.5613C44.2008 6.55621 46.1538 7.04177 47.4204 8.01288C48.687 8.97508 49.3203 10.4407 49.3203 12.4096C49.3203 13.5589 49.0059 14.5835 48.377 15.4833C47.7481 16.3742 46.858 17.0736 45.7065 17.5815C48.6295 21.9737 50.5338 24.8113 51.4196 26.0943H46.8491L42.2123 18.5971H40.0201Z" fill="white"/>
<path d="M57.3732 13.7727C56.5141 13.7727 55.8409 14.0489 55.3537 14.6013C54.8665 15.1448 54.5876 15.9199 54.5167 16.9266H60.2031C60.1854 15.9199 59.9242 15.1448 59.4193 14.6013C58.9145 14.0489 58.2324 13.7727 57.3732 13.7727ZM57.9445 26.3615C55.5531 26.3615 53.6841 25.6978 52.3378 24.3703C50.9915 23.0428 50.3184 21.1629 50.3184 18.7307C50.3184 16.2272 50.9383 14.2939 52.1784 12.9308C53.4273 11.5588 55.15 10.8728 57.3466 10.8728C59.4458 10.8728 61.0801 11.4741 62.2492 12.6769C63.4184 13.8796 64.003 15.5412 64.003 17.6616V19.6395H54.4237C54.468 20.7977 54.809 21.702 55.4467 22.3523C56.0845 23.0028 56.9791 23.3279 58.1305 23.3279C59.0252 23.3279 59.871 23.2344 60.6681 23.0473C61.4654 22.8602 62.298 22.5617 63.166 22.1519V25.3058C62.4574 25.6622 61.7001 25.9249 60.894 26.0943C60.088 26.2724 59.1049 26.3615 57.9445 26.3615Z" fill="white"/>
<path d="M70.913 26.3615C69.168 26.3615 67.7952 25.68 66.7942 24.3168C65.8022 22.9537 65.3062 21.065 65.3062 18.6506C65.3062 16.2005 65.8111 14.2939 66.8208 12.9308C67.8394 11.5588 69.2389 10.8728 71.0192 10.8728C72.8882 10.8728 74.3142 11.6033 75.2974 13.0644H75.4303C75.2265 11.9508 75.1247 10.9574 75.1247 10.0843V5.3H79.1901V26.0943H76.0812L75.2974 24.1565H75.1247C74.2035 25.6266 72.7995 26.3615 70.913 26.3615ZM72.3345 23.1141C73.3709 23.1141 74.1282 22.8113 74.6065 22.2053C75.0937 21.5995 75.3594 20.5705 75.4036 19.1183V18.6773C75.4036 17.0736 75.1557 15.9243 74.6597 15.2294C74.1725 14.5345 73.3754 14.187 72.2681 14.187C71.3647 14.187 70.6606 14.5746 70.1557 15.3497C69.6597 16.1159 69.4116 17.234 69.4116 18.704C69.4116 20.1741 69.664 21.2789 70.1689 22.0183C70.6737 22.7489 71.3957 23.1141 72.3345 23.1141Z" fill="white"/>
<path d="M94.5499 26.0943L93.4073 20.869L91.8661 14.2672H91.7732L89.0628 26.0943H84.705L80.48 11.1534H84.5189L86.2329 17.7685C86.5075 18.9535 86.7864 20.5883 87.0699 22.6731H87.1496C87.1851 21.9959 87.34 20.9225 87.6146 19.4524L87.8271 18.3165L89.6606 11.1534H94.1247L95.8653 18.3165C95.9007 18.5125 95.9539 18.802 96.0247 19.1851C96.1044 19.5682 96.1798 19.9781 96.2506 20.4147C96.3215 20.8423 96.3834 21.2654 96.4366 21.6841C96.4986 22.094 96.5341 22.4237 96.5429 22.6731H96.6226C96.7023 22.0316 96.844 21.1541 97.0478 20.0404C97.2515 18.9178 97.3976 18.1606 97.4863 17.7685L99.2666 11.1534H103.239L98.961 26.0943H94.5499Z" fill="white"/>
<path d="M107.784 18.5971C107.784 20.076 108.023 21.1941 108.501 21.9514C108.988 22.7088 109.777 23.0874 110.866 23.0874C111.947 23.0874 112.722 22.7132 113.191 21.9648C113.669 21.2075 113.909 20.085 113.909 18.5971C113.909 17.1182 113.669 16.009 113.191 15.2695C112.713 14.53 111.929 14.1603 110.84 14.1603C109.759 14.1603 108.979 14.53 108.501 15.2695C108.023 16.0001 107.784 17.1093 107.784 18.5971ZM118.054 18.5971C118.054 21.0293 117.416 22.9315 116.141 24.3035C114.865 25.6755 113.089 26.3615 110.813 26.3615C109.387 26.3615 108.129 26.0497 107.04 25.4261C105.95 24.7935 105.113 23.8892 104.529 22.7132C103.944 21.5371 103.652 20.1651 103.652 18.5971C103.652 16.156 104.285 14.2583 105.552 12.9041C106.818 11.5499 108.599 10.8728 110.893 10.8728C112.319 10.8728 113.576 11.1846 114.666 11.8082C115.755 12.4319 116.593 13.3273 117.177 14.4944C117.762 15.6615 118.054 17.0291 118.054 18.5971Z" fill="white"/>
<path d="M123.542 18.5971C123.542 20.076 123.781 21.1941 124.26 21.9514C124.747 22.7088 125.535 23.0874 126.625 23.0874C127.705 23.0874 128.48 22.7132 128.95 21.9648C129.428 21.2075 129.667 20.085 129.667 18.5971C129.667 17.1182 129.428 16.009 128.95 15.2695C128.471 14.53 127.687 14.1603 126.598 14.1603C125.517 14.1603 124.738 14.53 124.26 15.2695C123.781 16.0001 123.542 17.1093 123.542 18.5971ZM133.812 18.5971C133.812 21.0293 133.175 22.9315 131.899 24.3035C130.624 25.6755 128.848 26.3615 126.571 26.3615C125.145 26.3615 123.888 26.0497 122.798 25.4261C121.709 24.7935 120.872 23.8892 120.287 22.7132C119.702 21.5371 119.41 20.1651 119.41 18.5971C119.41 16.156 120.044 14.2583 121.31 12.9041C122.577 11.5499 124.357 10.8728 126.651 10.8728C128.077 10.8728 129.335 11.1846 130.424 11.8082C131.514 12.4319 132.351 13.3273 132.936 14.4944C133.52 15.6615 133.812 17.0291 133.812 18.5971Z" fill="white"/>
<path d="M140.775 26.3615C139.03 26.3615 137.657 25.68 136.656 24.3168C135.664 22.9537 135.168 21.065 135.168 18.6506C135.168 16.2005 135.673 14.2939 136.683 12.9308C137.702 11.5588 139.101 10.8728 140.882 10.8728C142.75 10.8728 144.177 11.6033 145.16 13.0644H145.292C145.089 11.9508 144.987 10.9574 144.987 10.0843V5.3H149.052V26.0943H145.943L145.16 24.1565H144.987C144.066 25.6266 142.662 26.3615 140.775 26.3615ZM142.197 23.1141C143.233 23.1141 143.99 22.8113 144.469 22.2053C144.956 21.5995 145.222 20.5705 145.266 19.1183V18.6773C145.266 17.0736 145.018 15.9243 144.522 15.2294C144.035 14.5345 143.238 14.187 142.13 14.187C141.227 14.187 140.523 14.5746 140.018 15.3497C139.522 16.1159 139.274 17.234 139.274 18.704C139.274 20.1741 139.526 21.2789 140.031 22.0183C140.536 22.7489 141.258 23.1141 142.197 23.1141Z" fill="white"/>
<path d="M150.488 31.8408C149.558 31.8408 148.748 31.7428 148.057 31.5468V28.0988C148.766 28.277 149.412 28.3661 149.997 28.3661C150.9 28.3661 151.547 28.0811 151.937 27.5109C152.326 26.9496 152.521 26.0676 152.521 24.8648V6.55621H156.64V24.838C156.64 27.1188 156.122 28.8562 155.085 30.0499C154.049 31.2438 152.517 31.8408 150.488 31.8408Z" fill="white"/>
<path d="M171.907 20.6686C171.907 22.4325 171.274 23.8224 170.007 24.838C168.749 25.8537 166.995 26.3615 164.746 26.3615C162.673 26.3615 160.84 25.9695 159.245 25.1855V21.3368C160.556 21.9247 161.663 22.339 162.567 22.5795C163.479 22.8201 164.312 22.9404 165.065 22.9404C165.968 22.9404 166.659 22.7667 167.137 22.4192C167.624 22.0717 167.868 21.555 167.868 20.869C167.868 20.4859 167.762 20.1474 167.549 19.8533C167.336 19.5504 167.022 19.2608 166.606 18.9847C166.198 18.7085 165.361 18.2675 164.095 17.6616C162.908 17.1004 162.018 16.5613 161.424 16.0446C160.831 15.5279 160.357 14.9265 160.003 14.2405C159.648 13.5545 159.471 12.7526 159.471 11.835C159.471 10.1066 160.051 8.7479 161.211 7.75896C162.381 6.77003 163.993 6.27557 166.048 6.27557C167.057 6.27557 168.018 6.39584 168.931 6.63639C169.852 6.87695 170.813 7.21549 171.814 7.65205L170.485 10.8728C169.449 10.4451 168.59 10.1466 167.908 9.97738C167.234 9.8081 166.57 9.72345 165.915 9.72345C165.135 9.72345 164.538 9.9061 164.121 10.2714C163.705 10.6367 163.497 11.1133 163.497 11.7013C163.497 12.0666 163.581 12.3873 163.749 12.6635C163.917 12.9308 164.183 13.1936 164.546 13.452C164.918 13.7015 165.791 14.1558 167.164 14.8151C168.979 15.6882 170.224 16.5658 170.897 17.4478C171.57 18.3209 171.907 19.3945 171.907 20.6686Z" fill="white"/>
</g>
<defs>
<clipPath id="clip0_626_15380">
<rect width="136.006" height="26.7" fill="white" transform="translate(35.9014 5.3)"/>
</clipPath>
</defs>
</svg>
